<svg xmlns="http://www.w3.org/2000/svg" xmlns:xlink="http://www.w3.org/1999/xlink" viewBox="0 0 141.31 66.6"><defs><style>.cls-1{fill:none;stroke-miterlimit:2;stroke-width:2px;}.cls-1,.cls-10,.cls-11,.cls-12,.cls-13,.cls-14,.cls-16,.cls-17,.cls-3,.cls-4,.cls-5,.cls-6,.cls-7,.cls-8,.cls-9{stroke:#231f20;}.cls-15,.cls-2{fill:#231f20;}.cls-10,.cls-11,.cls-12,.cls-13,.cls-14,.cls-15,.cls-17,.cls-3,.cls-4,.cls-5,.cls-6,.cls-7,.cls-8,.cls-9{stroke-miterlimit:10;}.cls-12,.cls-3{stroke-width:0.5px;}.cls-3{fill:url(#linear-gradient);}.cls-4{fill:url(#linear-gradient-2);}.cls-5{fill:url(#linear-gradient-3);}.cls-6{fill:url(#linear-gradient-4);}.cls-7{fill:url(#linear-gradient-5);}.cls-8{fill:url(#linear-gradient-6);}.cls-9{fill:url(#linear-gradient-7);}.cls-10{fill:url(#linear-gradient-8);}.cls-11{fill:url(#linear-gradient-9);}.cls-12{fill:url(#linear-gradient-10);}.cls-13{fill:#841618;}.cls-13,.cls-14{stroke-width:0.75px;}.cls-14,.cls-17{fill:#fefdf2;}.cls-15{stroke:#fffef3;}.cls-15,.cls-16,.cls-17{stroke-width:0.25px;}.cls-16{fill:#fffef3;stroke-linecap:round;stroke-linejoin:round;}</style><linearGradient id="linear-gradient" x1="12.13" y1="42.65" x2="12.13" y2="29.19" gradientUnits="userSpaceOnUse"><stop offset="0" stop-color="#5c5d60"/><stop offset="0.01" stop-color="#5e5f62"/><stop offset="0.24" stop-color="#8b8c8e"/><stop offset="0.46" stop-color="#aeafb1"/><stop offset="0.66" stop-color="#c7c8ca"/><stop offset="0.85" stop-color="#d7d8d9"/><stop offset="1" stop-color="#dcddde"/></linearGradient><linearGradient id="linear-gradient-2" x1="27.45" y1="42.65" x2="27.45" y2="28.71" xlink:href="#linear-gradient"/><linearGradient id="linear-gradient-3" x1="40.27" y1="42.65" x2="40.27" y2="28.71" xlink:href="#linear-gradient"/><linearGradient id="linear-gradient-4" x1="53.02" y1="42.65" x2="53.02" y2="28.71" xlink:href="#linear-gradient"/><linearGradient id="linear-gradient-5" x1="65.44" y1="42.65" x2="65.44" y2="28.71" xlink:href="#linear-gradient"/><linearGradient id="linear-gradient-6" x1="77.86" y1="42.65" x2="77.86" y2="28.71" xlink:href="#linear-gradient"/><linearGradient id="linear-gradient-7" x1="89.95" y1="42.65" x2="89.95" y2="28.71" xlink:href="#linear-gradient"/><linearGradient id="linear-gradient-8" x1="102.77" y1="42.65" x2="102.77" y2="28.71" xlink:href="#linear-gradient"/><linearGradient id="linear-gradient-9" x1="116.39" y1="42.65" x2="116.39" y2="28.71" xlink:href="#linear-gradient"/><linearGradient id="linear-gradient-10" x1="129.89" y1="42.41" x2="129.89" y2="28.95" xlink:href="#linear-gradient"/></defs><title>Asset 27</title><g id="Layer_2" data-name="Layer 2"><g id="NZ_Text" data-name="NZ Text"><line class="cls-1" x1="2.5" y1="35.68" x2="138.81" y2="35.68"/><path class="cls-2" d="M2.63,38.31a2.63,2.63,0,1,1,2.63-2.63A2.63,2.63,0,0,1,2.63,38.31Z"/><path class="cls-2" d="M138.68,38.31a2.63,2.63,0,1,0-2.63-2.63A2.63,2.63,0,0,0,138.68,38.31Z"/><ellipse class="cls-3" cx="12.13" cy="35.92" rx="4.88" ry="6.73"/><ellipse class="cls-4" cx="27.45" cy="35.68" rx="5.05" ry="6.97"/><ellipse class="cls-5" cx="40.27" cy="35.68" rx="5.05" ry="6.97"/><ellipse class="cls-6" cx="53.02" cy="35.68" rx="5.05" ry="6.97"/><ellipse class="cls-7" cx="65.44" cy="35.68" rx="5.05" ry="6.97"/><ellipse class="cls-8" cx="77.86" cy="35.68" rx="5.05" ry="6.97"/><ellipse class="cls-9" cx="89.95" cy="35.68" rx="5.05" ry="6.97"/><ellipse class="cls-10" cx="102.77" cy="35.68" rx="5.05" ry="6.97"/><ellipse class="cls-11" cx="116.39" cy="35.68" rx="5.05" ry="6.97"/><ellipse class="cls-12" cx="129.89" cy="35.68" rx="4.88" ry="6.73"/></g><g id="blockGraphics"><polygon class="cls-13" points="96.31 10.38 125.49 1.82 119.01 62.24 96.75 66.16 96.31 10.38"/><polygon class="cls-14" points="68.25 0.47 99.19 7.81 96.31 65.55 68.25 63.47 68.25 0.47"/><polygon class="cls-13" points="75.71 4.51 71.43 62.24 43.05 62.24 43.05 10.14 75.71 4.51"/><polygon class="cls-14" points="16.02 5.98 49.16 5.98 45.13 63.71 24.95 66.16 16.02 5.98"/></g><g id="blockLetters"><path class="cls-15" d="M37.89,51.94l-1-6.31H31.71l-1,6.31h-6v-.75l6.55-33.76h6.23l6.63,34.51ZM36,40.14l-1.7-10.57L32.57,40.14Z"/><path class="cls-15" d="M43.34,51.33H38.41l-1-6.31H31.19l-1,6.31H25.28v-.09L31.72,18H37ZM36.71,40.75l-2.42-15-2.44,15Z"/><polygon class="cls-16" points="65.32 51.94 65.32 37.41 62.41 48.9 58.93 48.9 56 37.38 56 51.94 50 51.94 50 17.47 55.77 17.47 60.66 34.67 65.55 17.47 71.32 17.47 71.32 51.94 65.32 51.94"/><path class="cls-16" d="M70.71,51.33H65.93V34.93a29.83,29.83,0,0,1,.3-3.61l-4.29,17H59.41l-4.32-17a30.78,30.78,0,0,1,.3,3.61v16.4H50.61V18.08h4.7l5.22,18.38A8.5,8.5,0,0,1,60.66,38a11.58,11.58,0,0,1,.13-1.51L66,18.08h4.7Z"/><path class="cls-15" d="M77.09,51.94V17.47H90.73a3.3,3.3,0,0,1,3.65,3.67v15c0,2.4-1.3,3.71-3.65,3.71H83.29v12Zm11-17.54V23H83.29V34.4Z"/><path class="cls-15" d="M93.77,36.18c0,2.07-1,3.1-3,3.1h-8v12h-5V18.08h13c2,0,3,1,3,3.06Zm-5-1.17V22.35H82.68V35Z"/><path class="cls-17" d="M100.58,51.94V17.47h10.74a7.08,7.08,0,0,1,5.12,1.86,6.74,6.74,0,0,1,1.93,5.06V45.06a6.67,6.67,0,0,1-1.93,5,7.11,7.11,0,0,1-5.12,1.84Zm9.15-5.49c1.7,0,2.43-.67,2.43-2.22V25.13c0-1.52-.69-2.17-2.3-2.17h-3.09V46.45Z"/><path class="cls-17" d="M117.76,45.06a6.06,6.06,0,0,1-1.74,4.6,6.52,6.52,0,0,1-4.7,1.67H101.19V18.08h10.13a6.45,6.45,0,0,1,4.7,1.69,6.15,6.15,0,0,1,1.74,4.62Zm-5-.83V25.13c0-1.85-1-2.78-2.91-2.78h-3.7V47.06h3.57C111.76,47.06,112.77,46.12,112.77,44.23Z"/><polygon class="cls-2" points="55.88 37.53 55.81 35.89 56.16 37.51 55.88 37.53"/><polygon class="cls-2" points="65.44 37.47 65.44 36.19 65.17 37.5 65.44 37.47"/><polyline class="cls-2" points="60.44 34.37 60.66 35.21 60.85 34.45"/></g></g></svg>