<?xml version="1.0" standalone="no"?>
<!DOCTYPE svg PUBLIC "-//W3C//DTD SVG 20010904//EN"
 "http://www.w3.org/TR/2001/REC-SVG-20010904/DTD/svg10.dtd">
<svg version="1.0" xmlns="http://www.w3.org/2000/svg"
 width="500.000000pt" height="500.000000pt" viewBox="0 0 500.000000 500.000000"
 preserveAspectRatio="xMidYMid meet">
<metadata>
Created by potrace 1.11, written by Peter Selinger 2001-2013
</metadata>
<g transform="translate(0.000000,500.000000) scale(0.100000,-0.100000)"
fill="#000000" stroke="none">
<path d="M2400 3580 c0 -75 -3 -100 -12 -99 -7 2 -47 -3 -88 -11 -41 -8 -82
-14 -90 -15 -8 -1 -28 -4 -45 -8 -16 -4 -46 -9 -65 -12 -39 -6 -131 -22 -170
-30 -13 -3 -42 -7 -65 -11 -22 -3 -57 -9 -78 -14 l-38 -8 2 56 3 55 -585 0
c-321 -1 -592 -2 -602 -2 -13 -1 -16 -7 -12 -28 3 -16 7 -48 11 -73 3 -25 9
-70 14 -100 5 -30 12 -75 15 -100 3 -25 10 -70 15 -100 5 -30 12 -77 15 -105
4 -27 8 -57 10 -65 2 -8 7 -35 10 -60 3 -25 8 -56 10 -70 8 -58 17 -117 20
-140 12 -72 25 -167 25 -178 0 -9 -13 -12 -47 -10 -40 3 -46 6 -50 28 -6 44
-47 112 -85 143 -94 76 -223 11 -259 -131 -11 -39 -14 -42 -43 -40 -19 1 -41
13 -58 30 -75 79 -203 -25 -143 -116 20 -31 67 -50 97 -41 13 4 37 20 54 35
43 37 89 30 84 -12 -1 -9 29 -78 45 -104 38 -63 123 -96 185 -72 58 22 130
130 130 196 0 14 9 17 46 15 25 0 50 -5 54 -10 5 -4 12 -35 15 -68 4 -33 8
-67 10 -75 2 -8 14 -80 25 -160 12 -80 23 -156 25 -170 7 -50 17 -115 20 -130
2 -8 6 -37 9 -65 6 -45 31 -214 41 -274 2 -13 7 -44 11 -68 5 -34 10 -43 23
-39 9 3 39 7 66 10 127 14 157 18 255 31 19 3 62 7 95 11 33 3 67 7 75 9 8 2
42 7 75 10 33 3 69 8 80 10 11 2 32 4 47 4 21 1 27 6 30 29 l3 27 393 0 392 0
0 -22 c0 -19 6 -23 33 -24 17 -1 43 -3 57 -4 14 -1 75 -5 135 -9 61 -4 121 -9
135 -11 14 -2 75 -7 135 -11 61 -4 121 -8 135 -9 14 -1 74 -6 134 -10 61 -4
117 -9 125 -10 9 -2 40 -4 69 -4 40 -1 52 -5 52 -17 0 -10 6 -14 18 -10 24 7
80 17 105 20 12 2 36 6 52 9 17 4 46 9 65 12 19 3 85 14 145 25 61 11 124 22
140 25 17 2 39 7 50 9 11 2 54 9 95 16 108 17 147 28 147 42 1 29 15 183 18
188 1 3 6 41 9 85 4 44 9 87 11 95 2 8 6 47 10 85 3 39 11 111 16 160 5 50 12
115 15 145 3 30 7 64 9 75 2 11 4 30 4 41 2 43 87 39 97 -5 16 -73 61 -139
115 -167 88 -45 199 28 230 150 9 37 16 46 33 46 11 0 31 -11 43 -24 33 -34
78 -40 118 -16 54 34 61 89 18 140 -24 30 -30 32 -72 27 -33 -4 -51 -12 -66
-31 -35 -44 -57 -35 -77 33 -39 131 -147 190 -242 132 -40 -25 -81 -82 -92
-128 -14 -63 -13 -63 -55 -61 l-40 1 5 46 c3 25 8 73 11 106 3 33 8 71 10 85
2 14 7 54 10 90 3 36 10 99 15 140 5 41 12 104 15 140 4 36 8 81 10 100 2 19
7 60 10 90 3 30 8 71 10 90 2 19 7 62 10 95 3 33 9 90 14 128 4 37 3 67 -2 67
-4 0 -209 -59 -455 -131 -246 -72 -451 -132 -457 -132 -5 -1 -11 10 -13 24 -3
23 -10 28 -55 37 -29 6 -128 30 -222 53 -93 22 -178 42 -188 44 -10 2 -26 6
-35 9 -9 3 -28 7 -42 10 -14 3 -92 21 -175 41 -82 20 -169 41 -192 45 -23 5
-68 16 -100 24 -32 7 -70 17 -85 20 l-28 6 0 -100z"/>
</g>
</svg>
