<svg xmlns="http://www.w3.org/2000/svg" xmlns:xlink="http://www.w3.org/1999/xlink" viewBox="0 0 431.38 321.46">
  <defs>
    <style>
      .cls-1{isolation:isolate;}
      .cls-11,.cls-12,.cls-13,.cls-14,.cls-15,.cls-16,.cls-17,.cls-18,.cls-19,.cls-2,.cls-20,.cls-21,.cls-22,.cls-3,.cls-4,.cls-6,.cls-7,.cls-9{stroke:#231f20;}
      .cls-11,.cls-12,.cls-13,.cls-14,.cls-15,.cls-16,.cls-17,.cls-18,.cls-19,.cls-2,.cls-20,.cls-21,.cls-22,.cls-3,.cls-4,.cls-5,.cls-7{stroke-miterlimit:10;}
      .cls-2{fill:url(#linear-gradient);}
      .cls-3{fill:#841618;}
      .cls-3,.cls-4{stroke-width:2px;}
      .cls-4,.cls-7{fill:#fefdf2;}
      .cls-11,.cls-5,.cls-8{fill:#231f20;}
      .cls-5{stroke:#fffef3;}
      .cls-22,.cls-6{fill:#fffef3;}
      .cls-6{stroke-linecap:round;stroke-linejoin:round;}
      .cls-9{fill:none;stroke-miterlimit:2;stroke-width:3px;}
      .cls-10{mix-blend-mode:multiply;}
      .cls-12{fill:url(#linear-gradient-2);}
      .cls-13{fill:url(#linear-gradient-3);}
      .cls-14{fill:url(#linear-gradient-4);}
      .cls-15{fill:url(#linear-gradient-5);}
      .cls-16{fill:url(#linear-gradient-6);}
      .cls-17{fill:url(#linear-gradient-7);}
      .cls-18{fill:url(#linear-gradient-8);}
      .cls-19{fill:url(#linear-gradient-9);}
      .cls-20{fill:url(#linear-gradient-10);}
      .cls-21{fill:url(#linear-gradient-11);}
      .cls-22{stroke-width:1.5px;}
    </style>

    <linearGradient id="linear-gradient" x1="215.69" y1="-65.66" x2="215.69" y2="364.88" gradientUnits="userSpaceOnUse">
      <stop offset="0.02" stop-color="#231f20" stop-opacity="0"/>
      <stop offset="1" stop-color="#231f20"/>
    </linearGradient>
    <linearGradient id="linear-gradient-2" x1="71.23" y1="235.82" x2="71.23" y2="200.83" gradientUnits="userSpaceOnUse">
      <stop offset="0" stop-color="#5c5d60"/>
      <stop offset="0.01" stop-color="#5e5f62"/>
      <stop offset="0.24" stop-color="#8b8c8e"/>
      <stop offset="0.46" stop-color="#aeafb1"/>
      <stop offset="0.66" stop-color="#c7c8ca"/>
      <stop offset="0.85" stop-color="#d7d8d9"/>
      <stop offset="1" stop-color="#dcddde"/>
    </linearGradient>
    <linearGradient id="linear-gradient-3" x1="103.4" y1="235.82" x2="103.4" y2="200.83" xlink:href="#linear-gradient-2"/>
    <linearGradient id="linear-gradient-4" x1="135.57" y1="235.82" x2="135.57" y2="200.83" xlink:href="#linear-gradient-2"/>
    <linearGradient id="linear-gradient-5" x1="167.74" y1="235.82" x2="167.74" y2="200.83" xlink:href="#linear-gradient-2"/>
    <linearGradient id="linear-gradient-6" x1="199.91" y1="235.82" x2="199.91" y2="200.83" xlink:href="#linear-gradient-2"/>
    <linearGradient id="linear-gradient-7" x1="232.08" y1="235.82" x2="232.08" y2="200.83" xlink:href="#linear-gradient-2"/>
    <linearGradient id="linear-gradient-8" x1="264.25" y1="235.82" x2="264.25" y2="200.83" xlink:href="#linear-gradient-2"/>
    <linearGradient id="linear-gradient-9" x1="296.42" y1="235.82" x2="296.42" y2="200.83" xlink:href="#linear-gradient-2"/>
    <linearGradient id="linear-gradient-10" x1="328.59" y1="235.82" x2="328.59" y2="200.83" xlink:href="#linear-gradient-2"/>
    <linearGradient id="linear-gradient-11" x1="360.76" y1="235.82" x2="360.76" y2="200.83" xlink:href="#linear-gradient-2"/>
  </defs>
  <title>AMPD_Logo</title>
  <g class="cls-1">
    <g id="Layer_2" data-name="Layer 2">
      <g id="arrow">
        <polygon class="cls-2" points="0.41 1.98 215.69 234.04 430.96 0.34 215.69 320.56 0.41 1.98"/>
    </g>
    <g id="blockGraphics">
      <polygon class="cls-3" points="282.8 47.99 354.38 26.98 338.48 175.23 283.86 184.83 282.8 47.99"/>
      <polygon class="cls-4" points="213.94 23.68 289.86 41.68 282.8 183.33 213.94 178.23 213.94 23.68"/>
      <polygon class="cls-3" points="232.24 33.58 221.74 175.23 152.12 175.23 152.12 47.39 232.24 33.58"/>
      <polygon class="cls-4" points="85.8 37.18 167.12 37.18 157.22 178.83 107.7 184.83 85.8 37.18"/>
    </g>
    <g id="blockLetters">
      <path class="cls-5" d="M139.46,149.94,137,134.46H124.3l-2.45,15.48H107v-1.85l16.06-82.82h15.3l16.26,84.67ZM134.81,121l-4.18-25.93L126.4,121Z"/>
      <path class="cls-5" d="M152.84,148.44h-12.1L138.29,133H123l-2.45,15.48h-12v-.2l15.8-81.47h12.82Zm-16.27-25.95-5.94-36.8-6,36.8Z"/>
      <polygon class="cls-6" points="206.75 149.94 206.75 114.28 199.62 142.49 191.09 142.49 183.9 114.21 183.9 149.94 169.18 149.94 169.18 65.37 183.33 65.37 195.33 107.58 207.33 65.37 221.48 65.37 221.48 149.94 206.75 149.94"/>
      <path class="cls-6" d="M220,148.44H208.25V108.21a75.51,75.51,0,0,1,.73-8.86L198.46,141h-6.21L181.67,99.35a75.57,75.57,0,0,1,.73,8.86v40.23H170.68V66.87h11.51L195,112a22.76,22.76,0,0,1,.31,3.7,30.31,30.31,0,0,1,.31-3.7l12.82-45.09H220Z"/>
      <path class="cls-5" d="M235.64,149.94V65.37h33.45c5.78,0,9,3.2,9,9v36.9c0,5.88-3.18,9.11-9,9.11H250.84v29.55Zm27.11-43V78.85H250.84v28.06Z"/>
      <path class="cls-5" d="M276.55,111.28q0,7.62-7.46,7.61H249.34v29.55h-12.2V66.87h31.95q7.46,0,7.46,7.51Zm-12.3-2.87V77.35H249.34v31.06Z"/>
      <path class="cls-7" d="M293.26,149.94V65.37h26.36c5.21,0,9.44,1.54,12.57,4.57s4.73,7.22,4.73,12.41v50.72c0,5.2-1.6,9.36-4.74,12.37s-7.35,4.5-12.56,4.5Zm22.45-13.47c4.18,0,6-1.63,6-5.43V84.18c0-3.74-1.69-5.33-5.64-5.33h-7.57v57.62Z"/>
      <path class="cls-7" d="M335.42,133.07q0,7.19-4.28,11.28t-11.52,4.09H294.76V66.87h24.86q7.25,0,11.52,4.15t4.28,11.33Zm-12.25-2V84.18q0-6.83-7.14-6.83H307V138h8.75Q323.17,138,323.17,131Z"/>
      <polygon class="cls-8" points="183.4 114.4 183.34 110.27 184.49 114.53 183.4 114.4"/>
      <polygon class="cls-8" points="207.27 114.4 207.33 110.27 206.18 114.53 207.27 114.4"/>
      <polyline class="cls-8" points="194.65 107.04 195.33 109.26 196.01 107.04"/>
    </g>
    <g id="linecircle"><line class="cls-9" x1="44.2" y1="218.32" x2="387.17" y2="218.32"/>
    <path class="cls-8" d="M44.4,222.27a3.95,3.95,0,1,1,4-4A4,4,0,0,1,44.4,222.27Z"/>
    <path class="cls-8" d="M387,222.27a3.95,3.95,0,1,0-3.94-4A4,4,0,0,0,387,222.27Z"/>
  </g>
  <g id="circles">
    <g id="circles-2" data-name="circles">
    <g class="cls-10">
      <ellipse class="cls-11" cx="71.23" cy="224.32" rx="12.69" ry="17.49"/>
      <ellipse class="cls-11" cx="103.4" cy="224.32" rx="12.69" ry="17.49"/>
      <ellipse class="cls-11" cx="135.57" cy="224.32" rx="12.69" ry="17.49"/>
      <ellipse class="cls-11" cx="167.74" cy="224.32" rx="12.69" ry="17.49"/>
      <ellipse class="cls-11" cx="199.91" cy="224.32" rx="12.69" ry="17.49"/>
      <ellipse class="cls-11" cx="232.08" cy="224.32" rx="12.69" ry="17.49"/>
      <ellipse class="cls-11" cx="264.25" cy="224.32" rx="12.69" ry="17.49"/>
      <ellipse class="cls-11" cx="296.42" cy="224.32" rx="12.69" ry="17.49"/>
      <ellipse class="cls-11" cx="328.59" cy="224.32" rx="12.69" ry="17.49"/>
      <ellipse class="cls-11" cx="360.76" cy="224.32" rx="12.69" ry="17.49"/>
    </g>
    <ellipse class="cls-12" cx="71.23" cy="218.32" rx="12.69" ry="17.49"/>
    <ellipse class="cls-13" cx="103.4" cy="218.32" rx="12.69" ry="17.49"/>
    <ellipse class="cls-14" cx="135.57" cy="218.32" rx="12.69" ry="17.49"/>
    <ellipse class="cls-15" cx="167.74" cy="218.32" rx="12.69" ry="17.49"/>
    <ellipse class="cls-16" cx="199.91" cy="218.32" rx="12.69" ry="17.49"/>
    <ellipse class="cls-17" cx="232.08" cy="218.32" rx="12.69" ry="17.49"/>
    <ellipse class="cls-18" cx="264.25" cy="218.32" rx="12.69" ry="17.49"/>
    <ellipse class="cls-19" cx="296.42" cy="218.32" rx="12.69" ry="17.49"/>
    <ellipse class="cls-20" cx="328.59" cy="218.32" rx="12.69" ry="17.49"/>
    <ellipse class="cls-21" cx="360.76" cy="218.32" rx="12.69" ry="17.49"/>
  </g>
</g>
<g id="NZ_Text" data-name="NZ Text">
  <path class="cls-22" d="M171,247.51,166,260l-.23.59a1.82,1.82,0,0,1-1.77,1.21,1.62,1.62,0,0,1-1.38-.54,3.85,3.85,0,0,1-.53-2l-.57-7.54-2.62,6.45a46.12,46.12,0,0,1-2.39,5.27,8.62,8.62,0,0,1-2.13,2.42,7,7,0,0,1-4.36,1.48,5.73,5.73,0,0,1-4.26-1.65,5.83,5.83,0,0,1-1.63-4.29,8.56,8.56,0,0,1,2.57-6.16,10.35,10.35,0,0,1,3.46-2.29,10.52,10.52,0,0,1,4.07-.88,2.82,2.82,0,0,1,1.66.44,1.33,1.33,0,0,1,.61,1.16,1.35,1.35,0,0,1-.48,1.13,3.15,3.15,0,0,1-1.62.47,9.76,9.76,0,0,0-4,1.15,5.86,5.86,0,0,0-2,2,4.84,4.84,0,0,0-.75,2.56,3.31,3.31,0,0,0,.73,2.25,2.59,2.59,0,0,0,2,.82,3.41,3.41,0,0,0,2.62-1.3,17.58,17.58,0,0,0,2.46-4.57L160.41,246a2.17,2.17,0,0,1,2-1.64c1,0,1.61.62,1.7,1.86l.65,8.33,3.38-8.33.21-.5a1.72,1.72,0,0,1,1.71-1.17h3.07q1.74,0,1.74,1.17a1.62,1.62,0,0,1-.61,1.34,2.77,2.77,0,0,1-1.7.47Z"/>
  <path class="cls-22" d="M173.9,257.92c0,.63.48.94,1.42.94H179c1.05,0,1.57.37,1.57,1.11a1.4,1.4,0,0,1-.55,1.19,2.54,2.54,0,0,1-1.56.43H175a4.22,4.22,0,0,1-3-1,3.73,3.73,0,0,1-1-2.85,5.88,5.88,0,0,1,1.63-4.16,5.12,5.12,0,0,1,3.88-1.75,3.89,3.89,0,0,1,2.63.86,2.83,2.83,0,0,1,1,2.25,2.69,2.69,0,0,1-1.37,2.5,4.47,4.47,0,0,1-2.28.46Zm.6-2.27h1.38c.89,0,1.32-.2,1.3-.59s-.31-.66-.86-.66A2,2,0,0,0,174.5,255.65Z"/>
  <path class="cls-22" d="M190.2,256.94l2.94-3.83.24-.3a2.06,2.06,0,0,1,1.62-1,1.23,1.23,0,0,1,.93.37,1.26,1.26,0,0,1,.36.93,2.82,2.82,0,0,1-.76,1.55l-4.69,5.9a2.55,2.55,0,0,1-1.91,1.16,1.81,1.81,0,0,1-1.38-.61,2.16,2.16,0,0,1-.56-1.5,2.45,2.45,0,0,1,0-.46l.41-2.25-2.55,3.66a2.21,2.21,0,0,1-1.77,1.16,1.72,1.72,0,0,1-1.38-.65,2.52,2.52,0,0,1-.54-1.67,1.57,1.57,0,0,1,0-.25l.35-5.24a2.66,2.66,0,0,1,.53-1.56,1.54,1.54,0,0,1,1.24-.54c.78,0,1.18.43,1.18,1.29a4.09,4.09,0,0,1,0,.47l-.35,3.5,2.79-4a2.51,2.51,0,0,1,2.06-1.27,1.6,1.6,0,0,1,1.15.41,1.51,1.51,0,0,1,.43,1.11,3.94,3.94,0,0,1,0,.43Z"/>
  <path class="cls-22" d="M212,253.75q3,2.22,3.25,4.85h1.64c1.15,0,1.72.4,1.72,1.2a1.56,1.56,0,0,1-.61,1.31,2.67,2.67,0,0,1-1.69.48h-.92a10.23,10.23,0,0,1-2.93,6.62,8.39,8.39,0,0,1-6.2,2.71,6.32,6.32,0,0,1-4.56-1.73,5.77,5.77,0,0,1-1.81-4.37,5.63,5.63,0,0,1,2-4.53,8.05,8.05,0,0,1,5.37-1.69H212a4.48,4.48,0,0,0-2.39-2.79l-.37-.2a1.63,1.63,0,0,1-1.05-1.45,2.4,2.4,0,0,1,.71-1.39l4.51-5.26h-5.17c-1.15,0-1.73-.39-1.73-1.18a1.61,1.61,0,0,1,.61-1.33,2.68,2.68,0,0,1,1.71-.47H216c1.39,0,2.09.54,2.09,1.62a2.36,2.36,0,0,1-.7,1.51Zm.09,7.84h-2.94a11.75,11.75,0,0,0-3.93.45,2.9,2.9,0,0,0-2.06,2.83,2.77,2.77,0,0,0,1,2.12,3.24,3.24,0,0,0,2.3.87,4.87,4.87,0,0,0,3.67-1.8A8.16,8.16,0,0,0,212.13,261.59Z"/>
  <path class="cls-22" d="M222.71,257.92c0,.63.47.94,1.41.94h3.72c1,0,1.57.37,1.57,1.11a1.4,1.4,0,0,1-.55,1.19,2.56,2.56,0,0,1-1.56.43h-3.54a4.2,4.2,0,0,1-3-1,3.73,3.73,0,0,1-1-2.85,5.88,5.88,0,0,1,1.63-4.16,5.1,5.1,0,0,1,3.88-1.75,3.89,3.89,0,0,1,2.63.86,2.83,2.83,0,0,1,1,2.25,2.71,2.71,0,0,1-1.37,2.5,4.47,4.47,0,0,1-2.28.46Zm.6-2.27h1.38c.89,0,1.32-.2,1.3-.59s-.32-.66-.87-.66A2,2,0,0,0,223.31,255.65Z"/>
  <path class="cls-22" d="M238.42,258.86h1.38c1,0,1.57.37,1.57,1.1a1.39,1.39,0,0,1-.56,1.19,2.46,2.46,0,0,1-1.55.44h-1.6a1.45,1.45,0,0,1-1.46-.84,2.79,2.79,0,0,1-1.81.84H233a2.77,2.77,0,0,1-2.22-1,3.78,3.78,0,0,1-.84-2.56,6.39,6.39,0,0,1,1.65-4.3,4.92,4.92,0,0,1,3.75-1.89,2.62,2.62,0,0,1,2.34,1.11,1.89,1.89,0,0,1,1.63-.94,1.28,1.28,0,0,1,.92.35,1.16,1.16,0,0,1,.37.87,2.3,2.3,0,0,1-.2.83l-.14.34Zm-4.53.06h.31a1.32,1.32,0,0,0,1.36-.83l.88-2.17a2.05,2.05,0,0,0,.17-.71.74.74,0,0,0-.33-.59,1.33,1.33,0,0,0-.79-.25,2.39,2.39,0,0,0-1.78,1.07,3.46,3.46,0,0,0-.86,2.2C232.85,258.5,233.19,258.92,233.89,258.92Z"/>
  <path class="cls-22" d="M245.2,258.86h1.31q1.59,0,1.59,1.11a1.41,1.41,0,0,1-.56,1.19,2.54,2.54,0,0,1-1.56.43h-2.25a2.27,2.27,0,0,1-1.46-.44,1.43,1.43,0,0,1-.54-1.18,4.24,4.24,0,0,1,.37-1.28l5.05-12.43.13-.33a1.93,1.93,0,0,1,1.84-1.4,1.24,1.24,0,0,1,.9.35,1.11,1.11,0,0,1,.36.83,2.4,2.4,0,0,1-.18.85l-.14.34Z"/>
  <path class="cls-22" d="M257.18,258.86h1.38c1.05,0,1.57.37,1.57,1.1a1.41,1.41,0,0,1-.56,1.19,2.48,2.48,0,0,1-1.55.44h-1.6a1.45,1.45,0,0,1-1.46-.84,2.79,2.79,0,0,1-1.81.84h-1.43a2.78,2.78,0,0,1-2.22-1,3.78,3.78,0,0,1-.84-2.56,6.35,6.35,0,0,1,1.66-4.3,4.89,4.89,0,0,1,3.74-1.89A2.62,2.62,0,0,1,256.4,253,1.89,1.89,0,0,1,258,252a1.28,1.28,0,0,1,.92.35,1.16,1.16,0,0,1,.37.87,2.3,2.3,0,0,1-.2.83l-.14.34Zm-4.53.06H253a1.32,1.32,0,0,0,1.36-.83l.88-2.17a2.05,2.05,0,0,0,.17-.71.74.74,0,0,0-.33-.59,1.33,1.33,0,0,0-.79-.25,2.39,2.39,0,0,0-1.78,1.07,3.46,3.46,0,0,0-.86,2.2C251.61,258.5,252,258.92,252.65,258.92Z"/>
  <path class="cls-22" d="M269.87,258.86h1.5q1.59,0,1.59,1.11a1.39,1.39,0,0,1-.57,1.19,2.53,2.53,0,0,1-1.55.43h-2.61a1.85,1.85,0,0,1-1.28-.47,1.46,1.46,0,0,1-.52-1.16,3.82,3.82,0,0,1,.35-1.27l1.1-2.73a2.13,2.13,0,0,0,.19-.69.58.58,0,0,0-.25-.51,1,1,0,0,0-.65-.21c-.86,0-1.55.65-2.08,1.94l-1.47,3.62q-.66,1.65-2,1.65a1.38,1.38,0,0,1-.91-.32,1,1,0,0,1-.37-.8,2.12,2.12,0,0,1,.2-.84l.13-.34,2.53-6.22a1.7,1.7,0,0,1,1.66-1.22,1.44,1.44,0,0,1,1.38.85,4.26,4.26,0,0,1,2.55-1,2.8,2.8,0,0,1,1.93.67,2.21,2.21,0,0,1,.77,1.72,3.52,3.52,0,0,1-.28,1.26Z"/>
  <path class="cls-22" d="M282,258.86h1.42q1.59,0,1.59,1.11a1.39,1.39,0,0,1-.57,1.19,2.53,2.53,0,0,1-1.55.43h-1.68a1.53,1.53,0,0,1-1.43-.8,2.4,2.4,0,0,1-1.71.8h-1.59a2.83,2.83,0,0,1-2.22-.95,3.74,3.74,0,0,1-.83-2.53,6.51,6.51,0,0,1,1.65-4.34,4.78,4.78,0,0,1,3.69-1.92,3,3,0,0,1,2.41,1.09L284,246.1c.47-1.17,1.14-1.75,2-1.75a1.33,1.33,0,0,1,.91.34,1.1,1.1,0,0,1,.37.85,2.5,2.5,0,0,1-.18.87l-.15.34Zm-4.58.06h.48a1.1,1.1,0,0,0,1.13-.68l.94-2.32a1.83,1.83,0,0,0,.18-.65.79.79,0,0,0-.32-.63,1.21,1.21,0,0,0-.8-.27,2.38,2.38,0,0,0-1.82,1.09,3.78,3.78,0,0,0-.84,2.35Q276.38,258.92,277.43,258.92Z"/>
</g>
</g>
</g>
</svg>
