<svg xmlns="http://www.w3.org/2000/svg" xmlns:xlink="http://www.w3.org/1999/xlink" viewBox="0 0 431.38 321.46">
  <defs>
    <style>
      .cls-1{isolation:isolate;}
      .cls-11,.cls-12,.cls-13,.cls-14,.cls-15,.cls-16,.cls-17,.cls-18,.cls-19,.cls-2,.cls-20,.cls-21,.cls-27,.cls-3,.cls-4,.cls-6,.cls-7,.cls-9 {
        stroke:#231f20;
      }
      .cls-11,.cls-12,.cls-13,.cls-14,.cls-15,.cls-16,.cls-17,.cls-18,.cls-19,.cls-2,.cls-20,.cls-21,.cls-27,.cls-3,.cls-4,.cls-5,.cls-7 {
        stroke-miterlimit:10;
      }
      .cls-2 {
        fill:url(#linear-gradient);}.cls-3{fill:#841618;}.cls-3,.cls-4{stroke-width:2px;}.cls-4,.cls-7{fill:#fefdf2;}.cls-11,.cls-22,.cls-23,.cls-24,.cls-25,.cls-26,.cls-5,.cls-8{fill:#231f20;}.cls-22,.cls-23,.cls-24,.cls-25,.cls-26,.cls-5{stroke:#fffef3;}.cls-27,.cls-6{fill:#fffef3;}.cls-6{stroke-linecap:round;stroke-linejoin:round;}.cls-9{fill:none;stroke-width:3px;}.cls-22,.cls-23,.cls-24,.cls-25,.cls-26,.cls-9{stroke-miterlimit:2;}.cls-10{mix-blend-mode:multiply;}.cls-12{fill:url(#linear-gradient-2);}.cls-13{fill:url(#linear-gradient-3);}.cls-14{fill:url(#linear-gradient-4);}.cls-15{fill:url(#linear-gradient-5);}.cls-16{fill:url(#linear-gradient-6);}.cls-17{fill:url(#linear-gradient-7);}.cls-18{fill:url(#linear-gradient-8);}.cls-19{fill:url(#linear-gradient-9);}.cls-20{fill:url(#linear-gradient-10);}.cls-21{fill:url(#linear-gradient-11);}.cls-22,.cls-23,.cls-24,.cls-25,.cls-26{font-size:25.6px;stroke-width:0.5px;font-family:Lato-Regular, Lato;}.cls-22{letter-spacing:-0.03em;}.cls-23{letter-spacing:-0.03em;}.cls-25{letter-spacing:-0.03em;}.cls-26{letter-spacing:-0.04em;}.cls-27{stroke-width:1.5px;}
    </style>
    <linearGradient id="linear-gradient" x1="215.69" y1="-65.66" x2="215.69" y2="364.88" gradientUnits="userSpaceOnUse"><stop offset="0.02" stop-color="#231f20" stop-opacity="0"/><stop offset="1" stop-color="#231f20"/></linearGradient><linearGradient id="linear-gradient-2" x1="72.23" y1="235.82" x2="72.23" y2="200.83" gradientUnits="userSpaceOnUse"><stop offset="0" stop-color="#5c5d60"/><stop offset="0.01" stop-color="#5e5f62"/><stop offset="0.24" stop-color="#8b8c8e"/><stop offset="0.46" stop-color="#aeafb1"/><stop offset="0.66" stop-color="#c7c8ca"/><stop offset="0.85" stop-color="#d7d8d9"/><stop offset="1" stop-color="#dcddde"/></linearGradient><linearGradient id="linear-gradient-3" x1="104.23" y1="235.82" x2="104.23" y2="200.83" xlink:href="#linear-gradient-2"/><linearGradient id="linear-gradient-4" x1="136.44" y1="235.82" x2="136.44" y2="200.83" xlink:href="#linear-gradient-2"/><linearGradient id="linear-gradient-5" x1="168.44" y1="235.82" x2="168.44" y2="200.83" xlink:href="#linear-gradient-2"/><linearGradient id="linear-gradient-6" x1="199.64" y1="235.82" x2="199.64" y2="200.83" xlink:href="#linear-gradient-2"/><linearGradient id="linear-gradient-7" x1="230.83" y1="235.82" x2="230.83" y2="200.83" xlink:href="#linear-gradient-2"/><linearGradient id="linear-gradient-8" x1="261.18" y1="235.82" x2="261.18" y2="200.83" xlink:href="#linear-gradient-2"/><linearGradient id="linear-gradient-9" x1="293.39" y1="235.82" x2="293.39" y2="200.83" xlink:href="#linear-gradient-2"/><linearGradient id="linear-gradient-10" x1="327.57" y1="235.82" x2="327.57" y2="200.83" xlink:href="#linear-gradient-2"/><linearGradient id="linear-gradient-11" x1="361.76" y1="235.82" x2="361.76" y2="200.83" xlink:href="#linear-gradient-2"/></defs><title>AMPD_Logo</title><g class="cls-1"><g id="Layer_2" data-name="Layer 2"><g id="arrow"><polygon class="cls-2" points="0.41 1.98 215.69 234.04 430.96 0.34 215.69 320.56 0.41 1.98"/></g><g id="blockGraphics"><polygon class="cls-3" points="282.8 47.99 354.38 26.98 338.48 175.23 283.86 184.83 282.8 47.99"/><polygon class="cls-4" points="213.94 23.68 289.86 41.68 282.8 183.33 213.94 178.23 213.94 23.68"/><polygon class="cls-3" points="232.24 33.58 221.74 175.23 152.12 175.23 152.12 47.39 232.24 33.58"/><polygon class="cls-4" points="85.8 37.18 167.12 37.18 157.22 178.83 107.7 184.83 85.8 37.18"/></g><g id="blockLetters"><path class="cls-5" d="M139.46,149.94,137,134.46H124.3l-2.45,15.48H107v-1.85l16.06-82.82h15.3l16.26,84.67Zm-4.65-29-4.19-25.93L126.4,121Z"/><path class="cls-5" d="M152.84,148.44H140.74L138.29,133H123l-2.45,15.48h-12v-.21l15.79-81.47h12.82Zm-16.26-26-5.94-36.8-6,36.8Z"/><polygon class="cls-6" points="206.75 149.94 206.75 114.28 199.62 142.49 191.09 142.49 183.9 114.21 183.9 149.94 169.18 149.94 169.18 65.37 183.33 65.37 195.33 107.58 207.33 65.37 221.48 65.37 221.48 149.94 206.75 149.94"/><path class="cls-6" d="M220,148.44H208.25V108.21a74.09,74.09,0,0,1,.73-8.86L198.46,141h-6.2L181.67,99.35a76.5,76.5,0,0,1,.73,8.86v40.24H170.68V66.87h11.52L195,112a21.63,21.63,0,0,1,.31,3.7,30.74,30.74,0,0,1,.31-3.7l12.82-45.08H220Z"/><path class="cls-5" d="M235.64,149.94V65.37h33.45c5.77,0,9,3.2,9,9v36.9c0,5.87-3.18,9.11-9,9.11H250.84v29.55Zm27.1-43V78.85H250.84v28.06Z"/><path class="cls-5" d="M276.55,111.28q0,7.61-7.45,7.61H249.34v29.55h-12.2V66.87h32q7.45,0,7.45,7.51Zm-12.3-2.87V77.35H249.34v31.06Z"/><path class="cls-7" d="M293.26,149.94V65.37h26.36c5.21,0,9.44,1.54,12.56,4.57s4.73,7.22,4.73,12.41v50.71c0,5.2-1.59,9.36-4.74,12.37s-7.35,4.51-12.56,4.51Zm22.45-13.48c4.17,0,6-1.62,6-5.43V84.18c0-3.73-1.69-5.33-5.64-5.33h-7.57v57.62Z"/><path class="cls-7" d="M335.42,133.07q0,7.19-4.27,11.28t-11.52,4.09H294.76V66.87h24.86q7.25,0,11.52,4.14t4.27,11.34Zm-12.25-2V84.18q0-6.83-7.14-6.83H307V138h8.76Q323.17,138,323.17,131Z"/><polygon class="cls-8" points="183.4 114.4 183.34 110.27 184.49 114.53 183.4 114.4"/><polygon class="cls-8" points="207.27 114.4 207.33 110.27 206.18 114.53 207.27 114.4"/><polyline class="cls-8" points="194.65 107.04 195.33 109.26 196.01 107.04"/></g><g id="linecircle"><line class="cls-9" x1="45.65" y1="218.32" x2="388.62" y2="218.32"/><circle class="cls-8" cx="45.85" cy="218.32" r="3.95"/><circle class="cls-8" cx="388.42" cy="218.32" r="3.95"/></g><g id="circles"><g id="circles-2" data-name="circles"><g class="cls-10"><ellipse class="cls-11" cx="72.23" cy="224.32" rx="12.69" ry="17.49"/><ellipse class="cls-11" cx="104.23" cy="224.32" rx="12.69" ry="17.49"/><ellipse class="cls-11" cx="136.44" cy="224.32" rx="12.69" ry="17.49"/><ellipse class="cls-11" cx="168.44" cy="224.32" rx="12.69" ry="17.49"/><ellipse class="cls-11" cx="199.64" cy="224.32" rx="12.69" ry="17.49"/><ellipse class="cls-11" cx="230.83" cy="224.32" rx="12.69" ry="17.49"/><ellipse class="cls-11" cx="261.18" cy="224.32" rx="12.69" ry="17.49"/><ellipse class="cls-11" cx="293.39" cy="224.32" rx="12.69" ry="17.49"/><ellipse class="cls-11" cx="327.57" cy="224.32" rx="12.69" ry="17.49"/><ellipse class="cls-11" cx="361.76" cy="224.32" rx="12.69" ry="17.49"/></g><ellipse class="cls-12" cx="72.23" cy="218.32" rx="12.69" ry="17.49"/><ellipse class="cls-13" cx="104.23" cy="218.32" rx="12.69" ry="17.49"/><ellipse class="cls-14" cx="136.44" cy="218.32" rx="12.69" ry="17.49"/><ellipse class="cls-15" cx="168.44" cy="218.32" rx="12.69" ry="17.49"/><ellipse class="cls-16" cx="199.64" cy="218.32" rx="12.69" ry="17.49"/><ellipse class="cls-17" cx="230.83" cy="218.32" rx="12.69" ry="17.49"/><ellipse class="cls-18" cx="261.18" cy="218.32" rx="12.69" ry="17.49"/><ellipse class="cls-19" cx="293.39" cy="218.32" rx="12.69" ry="17.49"/><ellipse class="cls-20" cx="327.57" cy="218.32" rx="12.69" ry="17.49"/><ellipse class="cls-21" cx="361.76" cy="218.32" rx="12.69" ry="17.49"/></g><g id="letters"><text class="cls-22" transform="translate(66.37 227.6)">L</text><text class="cls-23" transform="translate(95.8 227.6)">A</text><text class="cls-24" transform="translate(128.01 227.6)">B</text><text class="cls-24" transform="translate(158.31 227.6)">O</text><text class="cls-24" transform="translate(191.22 227.6)">R</text><text class="cls-23" transform="translate(222.4 227.6)">A</text><text class="cls-25" transform="translate(253.61 227.6)">T</text><text class="cls-24" transform="translate(283.26 227.6)">O</text><text class="cls-24" transform="translate(320 227.6)">R</text><text class="cls-26" transform="translate(354.18 227.6)">Y</text></g></g><g id="NZ_Text" data-name="NZ Text"><path class="cls-27" d="M169.79,247.34l-5,12.45-.24.59a1.82,1.82,0,0,1-1.76,1.21,1.64,1.64,0,0,1-1.39-.54,3.9,3.9,0,0,1-.52-2l-.57-7.54L157.64,258a47.38,47.38,0,0,1-2.39,5.27,8.54,8.54,0,0,1-2.13,2.42,6.92,6.92,0,0,1-4.36,1.47,5.72,5.72,0,0,1-4.26-1.65,5.84,5.84,0,0,1-1.63-4.29,8.54,8.54,0,0,1,2.57-6.16,10.34,10.34,0,0,1,3.46-2.29,10.46,10.46,0,0,1,4.07-.87,2.84,2.84,0,0,1,1.66.43,1.36,1.36,0,0,1,.61,1.17,1.33,1.33,0,0,1-.49,1.13,3.17,3.17,0,0,1-1.61.48,9.57,9.57,0,0,0-4,1.15,5.84,5.84,0,0,0-2,2,4.86,4.86,0,0,0-.74,2.56,3.25,3.25,0,0,0,.73,2.24,2.57,2.57,0,0,0,2,.82,3.39,3.39,0,0,0,2.62-1.3A17.22,17.22,0,0,0,154.2,258l4.95-12.19a2.17,2.17,0,0,1,2-1.64q1.56,0,1.7,1.86l.65,8.32L166.9,246l.2-.5a1.73,1.73,0,0,1,1.71-1.17h3.07q1.74,0,1.74,1.17a1.59,1.59,0,0,1-.61,1.34,2.71,2.71,0,0,1-1.7.48Z"/><path class="cls-27" d="M172.65,257.76q0,.94,1.41.94h3.71q1.58,0,1.58,1.11a1.41,1.41,0,0,1-.56,1.19,2.51,2.51,0,0,1-1.56.42H173.7a4.22,4.22,0,0,1-3-1,3.74,3.74,0,0,1-1-2.85,5.89,5.89,0,0,1,1.63-4.16,5.13,5.13,0,0,1,3.88-1.75,3.89,3.89,0,0,1,2.63.86,2.83,2.83,0,0,1,1,2.26,2.7,2.7,0,0,1-1.37,2.5,4.46,4.46,0,0,1-2.27.46Zm.6-2.27h1.38q1.34,0,1.3-.59t-.86-.66A2,2,0,0,0,173.25,255.48Z"/><path class="cls-27" d="M188.95,256.77l2.94-3.82.24-.3a2.07,2.07,0,0,1,1.63-1,1.24,1.24,0,0,1,.92.37,1.27,1.27,0,0,1,.36.93,2.84,2.84,0,0,1-.76,1.55l-4.69,5.9a2.54,2.54,0,0,1-1.91,1.16,1.79,1.79,0,0,1-1.37-.61,2.14,2.14,0,0,1-.56-1.5,3,3,0,0,1,0-.46l.41-2.25-2.55,3.66a2.22,2.22,0,0,1-1.77,1.16,1.71,1.71,0,0,1-1.37-.65,2.54,2.54,0,0,1-.54-1.67,2.06,2.06,0,0,1,0-.25l.35-5.24a2.68,2.68,0,0,1,.53-1.56,1.54,1.54,0,0,1,1.24-.54q1.17,0,1.17,1.29,0,.21,0,.47l-.35,3.5,2.79-4a2.52,2.52,0,0,1,2.06-1.27,1.58,1.58,0,0,1,1.15.41,1.48,1.48,0,0,1,.43,1.11q0,.29,0,.42Z"/><path class="cls-27" d="M210.79,253.58q3,2.23,3.25,4.85h1.64q1.72,0,1.72,1.2a1.57,1.57,0,0,1-.61,1.31,2.69,2.69,0,0,1-1.69.47h-.92a10.2,10.2,0,0,1-2.92,6.62,8.4,8.4,0,0,1-6.2,2.71,6.34,6.34,0,0,1-4.56-1.73,5.79,5.79,0,0,1-1.81-4.37,5.62,5.62,0,0,1,2-4.53,8.07,8.07,0,0,1,5.37-1.69h4.64a4.47,4.47,0,0,0-2.39-2.79l-.37-.2a1.64,1.64,0,0,1-1-1.45,2.36,2.36,0,0,1,.71-1.39l4.51-5.26h-5.17q-1.72,0-1.72-1.19a1.59,1.59,0,0,1,.61-1.33,2.71,2.71,0,0,1,1.71-.47h7.21q2.09,0,2.09,1.63a2.33,2.33,0,0,1-.7,1.51Zm.09,7.84h-2.94a11.68,11.68,0,0,0-3.92.45,2.91,2.91,0,0,0-2.06,2.84,2.77,2.77,0,0,0,.94,2.12,3.28,3.28,0,0,0,2.31.87,4.86,4.86,0,0,0,3.67-1.8A8.18,8.18,0,0,0,210.87,261.42Z"/><path class="cls-27" d="M221.46,257.76q0,.94,1.41.94h3.71q1.57,0,1.58,1.11a1.41,1.41,0,0,1-.56,1.19,2.51,2.51,0,0,1-1.56.42h-3.54a4.22,4.22,0,0,1-3-1,3.74,3.74,0,0,1-1-2.85,5.89,5.89,0,0,1,1.63-4.16,5.13,5.13,0,0,1,3.88-1.75,3.89,3.89,0,0,1,2.63.86,2.83,2.83,0,0,1,1,2.26,2.7,2.7,0,0,1-1.37,2.5,4.46,4.46,0,0,1-2.27.46Zm.6-2.27h1.38q1.34,0,1.3-.59t-.86-.66A2,2,0,0,0,222.06,255.48Z"/><path class="cls-27" d="M237.17,258.69h1.37q1.57,0,1.58,1.1a1.42,1.42,0,0,1-.56,1.19,2.49,2.49,0,0,1-1.55.43h-1.6a1.46,1.46,0,0,1-1.46-.84,2.78,2.78,0,0,1-1.81.84h-1.42a2.78,2.78,0,0,1-2.22-1,3.8,3.8,0,0,1-.84-2.57,6.35,6.35,0,0,1,1.66-4.29,4.89,4.89,0,0,1,3.74-1.89,2.6,2.6,0,0,1,2.34,1.11,1.89,1.89,0,0,1,1.64-.94,1.29,1.29,0,0,1,.92.35,1.15,1.15,0,0,1,.37.86,2.27,2.27,0,0,1-.2.84l-.14.34Zm-4.54.06h.31a1.32,1.32,0,0,0,1.36-.84l.88-2.16a2,2,0,0,0,.17-.71.73.73,0,0,0-.33-.59,1.29,1.29,0,0,0-.79-.25,2.37,2.37,0,0,0-1.78,1.06,3.46,3.46,0,0,0-.86,2.2Q231.6,258.76,232.63,258.76Z"/><path class="cls-27" d="M243.94,258.69h1.31q1.59,0,1.59,1.11a1.41,1.41,0,0,1-.56,1.19,2.52,2.52,0,0,1-1.56.42h-2.25A2.25,2.25,0,0,1,241,261a1.44,1.44,0,0,1-.54-1.17,4.06,4.06,0,0,1,.36-1.29l5-12.42.14-.34a1.93,1.93,0,0,1,1.84-1.4,1.25,1.25,0,0,1,.89.35,1.11,1.11,0,0,1,.37.84,2.35,2.35,0,0,1-.19.85l-.14.34Z"/><path class="cls-27" d="M255.93,258.69h1.37q1.57,0,1.58,1.1a1.42,1.42,0,0,1-.56,1.19,2.49,2.49,0,0,1-1.55.43h-1.6a1.46,1.46,0,0,1-1.46-.84,2.78,2.78,0,0,1-1.81.84h-1.42a2.78,2.78,0,0,1-2.22-1,3.8,3.8,0,0,1-.84-2.57,6.34,6.34,0,0,1,1.66-4.29,4.89,4.89,0,0,1,3.74-1.89,2.6,2.6,0,0,1,2.34,1.11,1.89,1.89,0,0,1,1.64-.94,1.29,1.29,0,0,1,.92.35,1.15,1.15,0,0,1,.37.86,2.27,2.27,0,0,1-.2.84l-.14.34Zm-4.54.06h.31a1.32,1.32,0,0,0,1.36-.84l.88-2.16a2,2,0,0,0,.17-.71.73.73,0,0,0-.33-.59,1.29,1.29,0,0,0-.79-.25,2.37,2.37,0,0,0-1.78,1.06,3.46,3.46,0,0,0-.86,2.2Q250.36,258.76,251.39,258.76Z"/><path class="cls-27" d="M268.62,258.69h1.5q1.59,0,1.59,1.11a1.4,1.4,0,0,1-.56,1.19,2.52,2.52,0,0,1-1.55.42H267a1.86,1.86,0,0,1-1.28-.46,1.49,1.49,0,0,1-.52-1.16,3.77,3.77,0,0,1,.35-1.27l1.1-2.72a2.22,2.22,0,0,0,.19-.69.61.61,0,0,0-.24-.51,1,1,0,0,0-.66-.21q-1.29,0-2.07,1.94l-1.47,3.63q-.66,1.65-2,1.65a1.34,1.34,0,0,1-.91-.33,1,1,0,0,1-.37-.8,2.27,2.27,0,0,1,.2-.84l.14-.34,2.52-6.22a1.7,1.7,0,0,1,1.66-1.21,1.42,1.42,0,0,1,1.38.85,4.26,4.26,0,0,1,2.55-1,2.81,2.81,0,0,1,1.94.67,2.19,2.19,0,0,1,.76,1.71,3.42,3.42,0,0,1-.28,1.26Z"/><path class="cls-27" d="M280.75,258.69h1.42q1.59,0,1.59,1.11a1.4,1.4,0,0,1-.56,1.19,2.52,2.52,0,0,1-1.55.42H280a1.52,1.52,0,0,1-1.42-.8,2.4,2.4,0,0,1-1.71.8h-1.59a2.8,2.8,0,0,1-2.22-1,3.69,3.69,0,0,1-.83-2.52,6.5,6.5,0,0,1,1.64-4.34,4.8,4.8,0,0,1,3.69-1.92,3,3,0,0,1,2.41,1.09l2.79-6.84q.71-1.75,2-1.75a1.3,1.3,0,0,1,.91.34,1.1,1.1,0,0,1,.38.84,2.47,2.47,0,0,1-.19.87l-.15.34Zm-4.58.06h.48a1.1,1.1,0,0,0,1.14-.69l.94-2.31a1.88,1.88,0,0,0,.18-.65.8.8,0,0,0-.32-.64,1.21,1.21,0,0,0-.79-.26,2.35,2.35,0,0,0-1.82,1.09,3.76,3.76,0,0,0-.84,2.35Q275.13,258.76,276.18,258.76Z"/></g></g></g></svg>
