<?xml version="1.0" encoding="utf-8"?>
<!DOCTYPE svg PUBLIC "-//W3C//DTD SVG 1.1//EN" "http://www.w3.org/Graphics/SVG/1.1/DTD/svg11.dtd">
<?xml-stylesheet type="text/css" href="styles.min.css"?>
<svg version="1.1" xmlns="http://www.w3.org/2000/svg" xmlns:xlink="http://www.w3.org/1999/xlink" x="0px" y="0px"
	 viewBox="0 0 64 64" enable-background="new 0 0 64 64" xml:space="preserve">
<g>
	<path class="icon" d="M36,19c-8.8,0-16,7.2-16,16s7.2,16,16,16s16-7.2,16-16S44.8,19,36,19z M36,47c-6.6,0-12-5.4-12-12s5.4-12,12-12
		s12,5.4,12,12S42.6,47,36,47z"/>
	<path class="icon" d="M57,14h-5l-5.8-7.4C45.4,5.6,44.3,5,43,5H29c-1.3,0-2.4,0.6-3.2,1.6L20,14h-2v-2c0-2.2-1.8-4-4-4H9c-2.2,0-4,1.8-4,4v2.3
		c-2.9,0.9-5,3.5-5,6.7v30c0,3.9,3.1,7,7,7h50c3.9,0,7-3.1,7-7V21C64,17.1,60.9,14,57,14z M14,12v2H9v-2H14z M60,51c0,1.7-1.3,3-3,3
		H7c-1.7,0-3-1.3-3-3V21c0-1.7,1.3-3,3-3h15l7-9l14,0l7,9h7c1.7,0,3,1.3,3,3V51z"/>
</g>
</svg>
