<?xml version="1.0" encoding="utf-8"?>
<svg version="1.1" id="Layer_1" xmlns="http://www.w3.org/2000/svg" xmlns:xlink="http://www.w3.org/1999/xlink" x="0px" y="0px"
	 viewBox="0 0 256.3 256.3" style="enable-background:new 0 0 256.3 256.3;" xml:space="preserve">
<style type="text/css">
	.st0{fill:none;stroke:#fefdf7;stroke-width: 10px;}
</style>
<path class="st0" d="M150.1,81.9c-32.5,0-59.2,26.6-59.2,59.2s26.6,59.2,59.2,59.2s59.2-26.6,59.2-59.2S182.7,81.9,150.1,81.9z"/>
<path class="st0" d="M227.8,63.4h-18.5L187.9,36c-3-3.7-7-5.9-11.8-5.9h-51.8c-4.8,0-8.9,2.2-11.8,5.9L91,63.4H69.1V56
	c0-8.1-6.7-14.8-14.8-14.8H35.9c-8.1,0-14.8,6.7-14.8,14.8v8.5C10.3,67.8,2.6,77.5,2.6,89.3v110.9c0,14.4,11.5,25.9,25.9,25.9h199.3
	c14.4,0,25.9-11.5,25.9-25.9V89.3C253.7,74.9,242.2,63.4,227.8,63.4z"/>
<circle class="st0" cx="44.7" cy="92.3" r="9.1"/>
</svg>
